<svg width="47" height="38" viewBox="0 0 47 38" fill="none" xmlns="http://www.w3.org/2000/svg">
<path d="M34.6625 3.9947e-08C36.0023 -0.000164551 37.2922 0.508294 38.2715 1.42262C39.2508 2.33694 39.8465 3.58895 39.9383 4.9256L39.95 5.2875V31.725C39.9495 32.0186 40.0589 32.3018 40.2567 32.5188C40.4545 32.7358 40.7264 32.8708 41.0188 32.8974C41.3113 32.9239 41.603 32.84 41.8367 32.6621C42.0703 32.4843 42.2289 32.2254 42.2812 31.9365L42.3 31.725V7.0829C43.5266 7.22004 44.6665 7.78193 45.5223 8.67123C46.3781 9.56052 46.8959 10.7212 46.9859 11.9521L47 12.3375V29.9625C47.0001 31.9133 46.2537 33.7902 44.914 35.2082C43.5742 36.6262 41.7426 37.4778 39.7949 37.5883L39.3625 37.6H7.6375C5.68668 37.6001 3.80975 36.8537 2.39176 35.514C0.973762 34.1742 0.122197 32.3426 0.0117503 30.3949L3.99469e-08 29.9625V5.2875C-0.000164551 3.9477 0.508294 2.6578 1.42262 1.67848C2.33694 0.699159 3.58894 0.103452 4.9256 0.0117503L5.2875 3.9947e-08H34.6625ZM17.0328 16.45H8.8078C8.34036 16.45 7.89206 16.6357 7.56152 16.9662C7.23099 17.2968 7.0453 17.7451 7.0453 18.2125V26.4375C7.0453 27.4104 7.8349 28.2 8.8078 28.2H17.0328C17.5002 28.2 17.9485 28.0143 18.2791 27.6838C18.6096 27.3532 18.7953 26.9049 18.7953 26.4375V18.2125C18.7953 17.7451 18.6096 17.2968 18.2791 16.9662C17.9485 16.6357 17.5002 16.45 17.0328 16.45ZM31.1422 24.675H25.2719L25.0322 24.6915C24.5898 24.7523 24.187 24.9788 23.9052 25.3252C23.6234 25.6717 23.4836 26.1121 23.514 26.5576C23.5445 27.0031 23.7429 27.4205 24.0692 27.7254C24.3955 28.0302 24.8253 28.1999 25.2719 28.2H31.1422L31.3819 28.1836C31.8243 28.1227 32.2271 27.8962 32.5089 27.5498C32.7907 27.2033 32.9305 26.7629 32.9001 26.3174C32.8696 25.8719 32.6712 25.4545 32.3449 25.1496C32.0186 24.8448 31.5888 24.6751 31.1422 24.675V24.675ZM15.2703 19.975V24.675H10.5703V19.975H15.2703ZM31.1375 16.45L25.2672 16.4618L25.0275 16.4759C24.5808 16.5324 24.1727 16.7577 23.8869 17.1056C23.6011 17.4535 23.4593 17.8976 23.4906 18.3468C23.5218 18.796 23.7238 19.2161 24.055 19.5211C24.3863 19.826 24.8217 19.9927 25.2719 19.9868L31.1445 19.975L31.3819 19.9586C31.8245 19.8977 32.2274 19.671 32.5093 19.3243C32.7911 18.9776 32.9307 18.5369 32.9 18.0912C32.8692 17.6455 32.6704 17.2281 32.3436 16.9234C32.0169 16.6188 31.5866 16.4495 31.1398 16.45H31.1375ZM31.1398 8.2344H8.8078L8.5681 8.25085C8.12571 8.31172 7.72292 8.53824 7.44112 8.88465C7.15931 9.23105 7.0195 9.67151 7.04994 10.117C7.08038 10.5625 7.27879 10.9799 7.60509 11.2848C7.93139 11.5896 8.36124 11.7593 8.8078 11.7594H31.1422L31.3819 11.7453C31.8281 11.6887 32.2357 11.4637 32.5214 11.1163C32.8071 10.7689 32.9492 10.3255 32.9185 9.87676C32.8879 9.42804 32.6869 9.00802 32.3566 8.70269C32.0264 8.39736 31.5919 8.22983 31.1422 8.2344H31.1398Z" fill="#555555"/>
</svg>
