<svg width="33" height="47" viewBox="0 0 33 47" fill="none" xmlns="http://www.w3.org/2000/svg">
<path fill-rule="evenodd" clip-rule="evenodd" d="M8.2251 3.525C8.2251 2.59011 8.59648 1.69351 9.25755 1.03245C9.91861 0.371383 10.8152 0 11.7501 0H21.1501C22.085 0 22.9816 0.371383 23.6426 1.03245C24.3037 1.69351 24.6751 2.59011 24.6751 3.525V5.875C24.6751 6.80989 24.3037 7.70649 23.6426 8.36755C22.9816 9.02862 22.085 9.4 21.1501 9.4H11.7501C10.8152 9.4 9.91861 9.02862 9.25755 8.36755C8.59648 7.70649 8.2251 6.80989 8.2251 5.875V3.525ZM11.7501 2.35C11.4385 2.35 11.1396 2.47379 10.9192 2.69415C10.6989 2.9145 10.5751 3.21337 10.5751 3.525V5.875C10.5751 6.18663 10.6989 6.48549 10.9192 6.70585C11.1396 6.92621 11.4385 7.05 11.7501 7.05H21.1501C21.4617 7.05 21.7606 6.92621 21.9809 6.70585C22.2013 6.48549 22.3251 6.18663 22.3251 5.875V3.525C22.3251 3.21337 22.2013 2.9145 21.9809 2.69415C21.7606 2.47379 21.4617 2.35 21.1501 2.35H11.7501Z" fill="#555555"/>
<path fill-rule="evenodd" clip-rule="evenodd" d="M9.4 3.52499H3.525C2.59011 3.52499 1.69351 3.89638 1.03245 4.55744C0.371382 5.21851 0 6.11511 0 7.04999V43.475C0 44.4099 0.371382 45.3065 1.03245 45.9675C1.69351 46.6286 2.59011 47 3.525 47H29.375C30.3099 47 31.2065 46.6286 31.8676 45.9675C32.5286 45.3065 32.9 44.4099 32.9 43.475V7.04999C32.9 6.11511 32.5286 5.21851 31.8676 4.55744C31.2065 3.89638 30.3099 3.52499 29.375 3.52499H23.5V5.87499C23.5 6.49825 23.2524 7.09598 22.8117 7.53669C22.371 7.97741 21.7733 8.22499 21.15 8.22499H11.75C11.1267 8.22499 10.529 7.97741 10.0883 7.53669C9.64759 7.09598 9.4 6.49825 9.4 5.87499V3.52499ZM5.875 19.975C5.875 19.6634 5.9988 19.3645 6.21915 19.1441C6.43951 18.9238 6.73837 18.8 7.05 18.8H15.275C15.5866 18.8 15.8855 18.9238 16.1059 19.1441C16.3262 19.3645 16.45 19.6634 16.45 19.975C16.45 20.2866 16.3262 20.5855 16.1059 20.8058C15.8855 21.0262 15.5866 21.15 15.275 21.15H7.05C6.73837 21.15 6.43951 21.0262 6.21915 20.8058C5.9988 20.5855 5.875 20.2866 5.875 19.975ZM7.05 12.925C6.73837 12.925 6.43951 13.0488 6.21915 13.2691C5.9988 13.4895 5.875 13.7884 5.875 14.1C5.875 14.4116 5.9988 14.7105 6.21915 14.9308C6.43951 15.1512 6.73837 15.275 7.05 15.275H25.2625C25.5741 15.275 25.873 15.1512 26.0934 14.9308C26.3137 14.7105 26.4375 14.4116 26.4375 14.1C26.4375 13.7884 26.3137 13.4895 26.0934 13.2691C25.873 13.0488 25.5741 12.925 25.2625 12.925H7.05ZM8.225 29.375V31.725H10.575V29.375H8.225ZM7.05 27.025C6.73837 27.025 6.43951 27.1488 6.21915 27.3691C5.9988 27.5895 5.875 27.8884 5.875 28.2V32.9C5.875 33.2116 5.9988 33.5105 6.21915 33.7308C6.43951 33.9512 6.73837 34.075 7.05 34.075H11.75C12.0616 34.075 12.3605 33.9512 12.5809 33.7308C12.8012 33.5105 12.925 33.2116 12.925 32.9V28.2C12.925 27.8884 12.8012 27.5895 12.5809 27.3691C12.3605 27.1488 12.0616 27.025 11.75 27.025H7.05ZM24.675 29.375C24.675 30.3099 24.3036 31.2065 23.6426 31.8675C22.9815 32.5286 22.0849 32.9 21.15 32.9C20.2151 32.9 19.3185 32.5286 18.6575 31.8675C17.9964 31.2065 17.625 30.3099 17.625 29.375C17.625 28.4401 17.9964 27.5435 18.6575 26.8824C19.3185 26.2214 20.2151 25.85 21.15 25.85C22.0849 25.85 22.9815 26.2214 23.6426 26.8824C24.3036 27.5435 24.675 28.4401 24.675 29.375V29.375ZM21.15 34.4486C18.7965 34.4486 14.1 35.7012 14.1 38.1875V41.125H28.2V38.1875C28.2 35.7012 23.5035 34.4486 21.15 34.4486Z" fill="#555555"/>
</svg>
