<svg width="26" height="26" viewBox="0 0 26 26" fill="none" xmlns="http://www.w3.org/2000/svg">
<path d="M18.0877 4.46733L21.3225 7.51586L18.0877 4.46733ZM20.1679 1.78168L11.4211 10.0287C10.9691 10.4542 10.6609 10.9964 10.5352 11.5868L9.72729 15.4L13.7716 14.6368C14.3978 14.5187 14.972 14.2293 15.4241 13.803L24.171 5.55599C24.4338 5.30817 24.6423 5.01395 24.7846 4.69016C24.9268 4.36636 25 4.01931 25 3.66884C25 3.31836 24.9268 2.97132 24.7846 2.64752C24.6423 2.32372 24.4338 2.02951 24.171 1.78168C23.9081 1.53386 23.5961 1.33727 23.2527 1.20315C22.9092 1.06903 22.5412 1 22.1694 1C21.7977 1 21.4296 1.06903 21.0862 1.20315C20.7428 1.33727 20.4308 1.53386 20.1679 1.78168V1.78168Z" stroke="white" stroke-width="2" stroke-linecap="round" stroke-linejoin="round"/>
<path d="M22.8182 17.7984V22.1184C22.8182 22.8823 22.5117 23.6148 21.9661 24.1549C21.4206 24.695 20.6806 24.9984 19.9091 24.9984H3.90909C3.13755 24.9984 2.39761 24.695 1.85205 24.1549C1.30649 23.6148 1 22.8823 1 22.1184V6.27844C1 5.51461 1.30649 4.78207 1.85205 4.24197C2.39761 3.70187 3.13755 3.39844 3.90909 3.39844H8.27273" stroke="white" stroke-width="2" stroke-linecap="round" stroke-linejoin="round"/>
</svg>
