<svg width="20" height="20" viewBox="0 0 20 20" fill="none" xmlns="http://www.w3.org/2000/svg">
<path fill-rule="evenodd" clip-rule="evenodd" d="M15.5556 3.52941C15.5556 2.59335 15.2044 1.69563 14.5792 1.03374C13.9541 0.371848 13.1063 0 12.2222 0H7.77778C6.89372 0 6.04588 0.371848 5.42076 1.03374C4.79563 1.69563 4.44444 2.59335 4.44444 3.52941H3.33333C2.44928 3.52941 1.60143 3.90126 0.976311 4.56315C0.35119 5.22505 0 6.12277 0 7.05882V16.4706C0 17.4066 0.35119 18.3044 0.976311 18.9663C1.60143 19.6282 2.44928 20 3.33333 20H16.6667C17.5507 20 18.3986 19.6282 19.0237 18.9663C19.6488 18.3044 20 17.4066 20 16.4706V7.05882C20 6.12277 19.6488 5.22505 19.0237 4.56315C18.3986 3.90126 17.5507 3.52941 16.6667 3.52941H15.5556ZM12.2222 2.35294H7.77778C7.48309 2.35294 7.20048 2.47689 6.9921 2.69752C6.78373 2.91815 6.66667 3.21739 6.66667 3.52941H13.3333C13.3333 3.21739 13.2163 2.91815 13.0079 2.69752C12.7995 2.47689 12.5169 2.35294 12.2222 2.35294ZM3.33333 5.88235H16.6667C16.9614 5.88235 17.244 6.0063 17.4523 6.22693C17.6607 6.44756 17.7778 6.7468 17.7778 7.05882V16.4706C17.7778 16.7826 17.6607 17.0819 17.4523 17.3025C17.244 17.5231 16.9614 17.6471 16.6667 17.6471H3.33333C3.03865 17.6471 2.75603 17.5231 2.54766 17.3025C2.33929 17.0819 2.22222 16.7826 2.22222 16.4706V7.05882C2.22222 6.7468 2.33929 6.44756 2.54766 6.22693C2.75603 6.0063 3.03865 5.88235 3.33333 5.88235Z" fill="#006161"/>
</svg>
