<svg width="37" height="37" viewBox="0 0 37 37" fill="none" xmlns="http://www.w3.org/2000/svg">
<path d="M33.6746 1.22305C33.3566 0.766258 32.9283 0.432209 32.3908 0.220301C32.0484 0.0737478 31.6896 0.000342615 31.3145 0.000342615V0H5.68572C5.31081 0 4.95235 0.0734052 4.60991 0.219959C4.072 0.431695 3.6439 0.766172 3.32604 1.22271C3.00827 1.67924 2.84912 2.18443 2.84912 2.73886V34.2611C2.84912 34.8157 3.00827 35.3207 3.32604 35.7776C3.6439 36.2341 4.072 36.5685 4.60991 36.7801C4.95201 36.9267 5.31081 36.9999 5.68572 36.9999C6.45223 36.9999 7.12847 36.7308 7.71554 36.1932L18.5002 25.8238L29.2849 36.1935C29.8556 36.7143 30.5322 36.9752 31.3144 36.9752C31.7222 36.9752 32.0809 36.9105 32.3907 36.78C32.9282 36.5684 33.3565 36.234 33.6745 35.777C33.9923 35.3206 34.1511 34.8155 34.1511 34.261V2.73921C34.1512 2.18477 33.9921 1.67958 33.6746 1.22305ZM31.0211 33.5025L20.6768 23.574L18.5002 21.4957L16.3238 23.574L5.97959 33.5025V3.13056H31.0211V33.5025V33.5025Z" fill="#7E808B"/>
</svg>
