<svg width="20" height="18" viewBox="0 0 20 18" fill="none" xmlns="http://www.w3.org/2000/svg">
<path d="M19.2616 10.3096C19.3496 11.7583 18.6555 13.1509 17.414 14.0014L18.1667 15.394C18.3916 15.8146 18.4209 16.3099 18.2254 16.7492C18.0397 17.1885 17.6584 17.5343 17.1892 17.6838L16.4169 17.9175C16.0954 18.0211 15.7482 18.0273 15.4228 17.9353C15.0974 17.8433 14.8096 17.6576 14.5987 17.4034L12.5263 15.0669C11.6563 14.9267 10.8352 14.5715 10.1411 14.0388C9.65234 14.179 9.16357 14.2537 8.6748 14.2537C7.81456 14.2537 6.95432 14.0014 6.23094 13.5154C5.71284 13.6649 5.18497 13.7303 4.64732 13.721C3.87506 13.7303 3.11258 13.5808 2.39897 13.3004C1.71209 13.0074 1.12517 12.5357 0.705161 11.9391C0.285153 11.3426 0.0489659 10.6451 0.0235398 9.9264C-0.0546636 9.25347 0.0626416 8.57119 0.36568 7.95433C0.0821925 7.25336 0.0528661 6.48697 0.297252 5.77665C0.658943 4.88875 1.34322 4.15039 2.19369 3.68308C2.76066 2.10355 4.35406 1.04742 6.10386 1.15957C7.66793 -0.242371 10.0629 -0.391912 11.8029 0.813761C12.2135 0.710952 12.6436 0.654874 13.0737 0.654874C14.4032 0.626835 15.6642 1.18761 16.4951 2.18767C18.4893 2.68302 19.9165 4.38405 19.9947 6.36546C20.0436 7.4029 19.7504 8.42165 19.1541 9.29086C19.2225 9.62732 19.2616 9.96379 19.2616 10.3096ZM14.3739 8.99177C14.9311 9.0572 15.371 9.45909 15.371 9.99183C15.371 10.2397 15.268 10.4774 15.0847 10.6527C14.9013 10.828 14.6527 10.9265 14.3934 10.9265H13.7776C13.4648 11.7676 12.9173 12.506 12.194 13.0668C12.4383 13.1509 12.6925 13.1976 12.9467 13.263C17.9615 13.1976 17.3749 10.2722 17.3749 10.2255C17.349 9.58348 17.0574 8.97763 16.5642 8.54119C16.0711 8.10476 15.4168 7.87349 14.7453 7.89826C14.4861 7.89826 14.2374 7.79979 14.0541 7.62451C13.8708 7.44923 13.7678 7.21151 13.7678 6.96363C13.7678 6.71575 13.8708 6.47802 14.0541 6.30274C14.2374 6.12747 14.4861 6.029 14.7453 6.029C15.9477 6.05704 17.1012 6.48697 18.0006 7.24402C18.0494 6.97297 18.0788 6.69258 18.0788 6.41219C18.0201 5.25325 17.4727 4.24385 15.2732 4.04758C14.0513 1.28108 10.972 2.81387 10.972 3.67373C10.9427 3.88869 11.1773 4.34666 11.2164 4.3747C11.4757 4.3747 11.7243 4.47317 11.9076 4.64845C12.091 4.82373 12.194 5.06145 12.194 5.30933C12.194 5.82338 11.7541 6.24396 11.2164 6.24396C10.6983 6.22527 10.2095 6.03834 9.81852 5.72057C9.3493 6.0103 8.81165 6.18788 8.25445 6.24396C7.69725 6.29069 7.23781 5.91684 7.20848 5.40279C7.19047 5.28071 7.19875 5.15639 7.23282 5.03747C7.26688 4.91855 7.32601 4.80755 7.40656 4.71127C7.48712 4.61499 7.58742 4.53547 7.70128 4.47759C7.81515 4.41972 7.94019 4.3847 8.06872 4.3747C8.22513 4.35601 8.98761 4.24385 8.98761 3.65504C8.98761 3.03818 9.232 2.44936 9.65234 1.98205C8.753 1.74839 7.78523 2.05682 6.80769 3.18772C5.00901 2.91668 4.27585 3.15034 3.7382 4.97286C2.80954 5.41214 2.32077 5.72057 2.10571 6.6552C3.16145 6.44958 4.24653 6.5337 5.2534 6.88886C5.74217 7.06644 6.01588 7.58983 5.83015 8.09453C5.64441 8.58054 5.07744 8.82354 4.56912 8.64596C3.85551 8.34688 3.05392 8.32819 2.32077 8.58988C2.00795 8.84223 2.00795 9.36563 2.00795 9.77686C2.00795 10.4685 2.36964 11.1134 2.9855 11.4872C3.50359 11.7396 4.08034 11.8704 4.65709 11.8611C4.51046 11.6181 4.38338 11.3657 4.27585 11.104C4.1989 10.8639 4.22234 10.6046 4.34125 10.3807C4.46016 10.1567 4.66526 9.98559 4.91343 9.90327C5.1616 9.82095 5.43349 9.83385 5.67191 9.93926C5.91034 10.0447 6.09671 10.2344 6.19184 10.4685C6.58286 11.534 7.57995 12.263 8.753 12.3845C10.0922 12.3191 11.2848 11.562 11.8714 10.3937C12.0962 9.10393 13.1813 8.99177 14.3739 8.99177ZM16.329 15.9735L15.7229 14.7584L15.0288 14.908L16.0064 16.0763L16.329 15.9735V15.9735ZM11.7834 7.9263C11.7919 7.68753 11.7044 7.45473 11.539 7.27569C11.3736 7.09666 11.1427 6.98499 10.8938 6.96363C10.1998 6.92624 9.52526 7.15055 9.00716 7.58983C8.44996 8.13191 8.1567 8.87962 8.18603 9.63667C8.18603 9.88455 8.28902 10.1223 8.47234 10.2976C8.65567 10.4728 8.90431 10.5713 9.16357 10.5713C9.72077 10.5713 10.1411 10.1507 10.1411 9.63667C10.1411 9.38432 10.2095 9.13197 10.3659 8.92635C10.4833 8.83289 10.6299 8.78615 10.7863 8.78615C11.3239 8.81419 11.7834 8.431 11.7834 7.9263Z" fill="#00ADAC"/>
</svg>
