<svg width="42" height="36" viewBox="0 0 42 36" fill="none" xmlns="http://www.w3.org/2000/svg">
<path d="M37.5 6.1875H31.125L29.6062 1.93125C29.5013 1.64001 29.309 1.38826 29.0557 1.21039C28.8023 1.03253 28.5002 0.937227 28.1906 0.937501H13.8094C13.1766 0.937501 12.6094 1.33594 12.3984 1.93125L10.875 6.1875H4.5C2.42812 6.1875 0.75 7.86563 0.75 9.9375V31.3125C0.75 33.3844 2.42812 35.0625 4.5 35.0625H37.5C39.5719 35.0625 41.25 33.3844 41.25 31.3125V9.9375C41.25 7.86563 39.5719 6.1875 37.5 6.1875ZM21 27.5625C16.8562 27.5625 13.5 24.2063 13.5 20.0625C13.5 15.9187 16.8562 12.5625 21 12.5625C25.1438 12.5625 28.5 15.9187 28.5 20.0625C28.5 24.2063 25.1438 27.5625 21 27.5625ZM16.5 20.0625C16.5 21.256 16.9741 22.4006 17.818 23.2445C18.6619 24.0884 19.8065 24.5625 21 24.5625C22.1935 24.5625 23.3381 24.0884 24.182 23.2445C25.0259 22.4006 25.5 21.256 25.5 20.0625C25.5 18.869 25.0259 17.7244 24.182 16.8805C23.3381 16.0366 22.1935 15.5625 21 15.5625C19.8065 15.5625 18.6619 16.0366 17.818 16.8805C16.9741 17.7244 16.5 18.869 16.5 20.0625Z" fill="#555555"/>
</svg>
