<svg width="20" height="20" viewBox="0 0 20 20" fill="none" xmlns="http://www.w3.org/2000/svg">
<path fill-rule="evenodd" clip-rule="evenodd" d="M16.1375 13.8792C17.2357 9.89174 14.6355 5.77333 10.3638 4.6598C5.53996 3.40095 -1.30665 6.66988 0.216457 10.863C0.721354 12.2498 1.69328 12.5742 3.52669 12.5998L3.64134 12.6019C4.61011 12.6131 4.88255 12.6745 4.96459 12.8035C5.09818 13.0164 5.10028 13.3551 4.94986 14.2875C4.87834 14.7276 4.8552 14.8811 4.82785 15.1216C4.6606 16.5862 4.91515 17.7284 5.90075 18.7621C8.98062 21.9891 14.8974 18.3803 16.1375 13.8792ZM2.20028 10.1793C1.43347 8.071 6.34044 5.7283 9.81896 6.63509C12.9925 7.46307 14.8953 10.4772 14.1053 13.348C13.2239 16.5494 9.07529 19.0794 7.44279 17.3681C6.9379 16.84 6.81272 16.2751 6.91896 15.3468C6.94105 15.1482 6.96209 15.0111 7.02836 14.6038C7.25872 13.174 7.25556 12.521 6.75697 11.7319C6.13216 10.7422 5.38955 10.5754 3.66764 10.5539L3.55614 10.5519C2.54214 10.5386 2.30126 10.4577 2.19923 10.1793H2.20028Z" fill="#00ADAC"/>
<path d="M5.3871 9.82651C5.03839 9.82651 4.70395 9.69173 4.45737 9.45181C4.21079 9.21189 4.07227 8.88649 4.07227 8.54719C4.07227 8.20789 4.21079 7.88249 4.45737 7.64257C4.70395 7.40265 5.03839 7.26786 5.3871 7.26786C5.73582 7.26786 6.07025 7.40265 6.31683 7.64257C6.56341 7.88249 6.70194 8.20789 6.70194 8.54719C6.70194 8.88649 6.56341 9.21189 6.31683 9.45181C6.07025 9.69173 5.73582 9.82651 5.3871 9.82651ZM9.33161 9.82651C8.98289 9.82651 8.64846 9.69173 8.40188 9.45181C8.1553 9.21189 8.01677 8.88649 8.01677 8.54719C8.01677 8.20789 8.1553 7.88249 8.40188 7.64257C8.64846 7.40265 8.98289 7.26786 9.33161 7.26786C9.68033 7.26786 10.0148 7.40265 10.2613 7.64257C10.5079 7.88249 10.6464 8.20789 10.6464 8.54719C10.6464 8.88649 10.5079 9.21189 10.2613 9.45181C10.0148 9.69173 9.68033 9.82651 9.33161 9.82651ZM11.9613 12.8969C11.6126 12.8969 11.2781 12.7621 11.0316 12.5222C10.785 12.2823 10.6464 11.9569 10.6464 11.6176C10.6464 11.2783 10.785 10.9529 11.0316 10.713C11.2781 10.473 11.6126 10.3382 11.9613 10.3382C12.31 10.3382 12.6444 10.473 12.891 10.713C13.1376 10.9529 13.2761 11.2783 13.2761 11.6176C13.2761 11.9569 13.1376 12.2823 12.891 12.5222C12.6444 12.7621 12.31 12.8969 11.9613 12.8969ZM10.3835 16.479C10.0348 16.479 9.70033 16.3442 9.45375 16.1043C9.20717 15.8644 9.06864 15.539 9.06864 15.1997C9.06864 14.8604 9.20717 14.535 9.45375 14.2951C9.70033 14.0552 10.0348 13.9204 10.3835 13.9204C10.7322 13.9204 11.0666 14.0552 11.3132 14.2951C11.5598 14.535 11.6983 14.8604 11.6983 15.1997C11.6983 15.539 11.5598 15.8644 11.3132 16.1043C11.0666 16.3442 10.7322 16.479 10.3835 16.479ZM14.1912 3.28147C14.316 3.21646 14.4529 3.17659 14.5938 3.16427C14.7347 3.15194 14.8768 3.1674 15.0114 3.20973C15.146 3.25206 15.2705 3.32039 15.3774 3.41062C15.4843 3.50085 15.5713 3.61113 15.6334 3.73487L19.9387 12.332C20.0105 12.4865 20.0192 12.6618 19.963 12.8224C19.9067 12.983 19.7898 13.1166 19.6359 13.1963C19.4819 13.2759 19.3026 13.2955 19.1344 13.2511C18.9661 13.2067 18.8215 13.1017 18.7301 12.9573L13.7779 4.69794C13.7067 4.57913 13.6609 4.44755 13.6432 4.3111C13.6256 4.17464 13.6364 4.03613 13.6751 3.90385C13.7138 3.77158 13.7796 3.64827 13.8684 3.54132C13.9573 3.43438 14.0675 3.34599 14.1923 3.28147H14.1912Z" fill="#00ADAC"/>
<path fill-rule="evenodd" clip-rule="evenodd" d="M12.2638 3.16076C12.7761 4.09723 13.6376 4.35924 14.4707 3.92836C15.3027 3.49851 15.5625 2.6562 15.0502 1.71973C14.4654 0.647139 13.2116 -0.32515 12.3806 0.10368C11.5496 0.533535 11.678 2.08817 12.2649 3.16076H12.2638ZM13.1926 2.67973C13.0064 2.31583 12.8922 1.92107 12.856 1.51606C12.8404 1.34674 12.8468 1.17619 12.875 1.00842L12.8939 1.01763C12.9465 1.0422 13.1095 1.11588 13.3178 1.27759C13.6355 1.52425 13.951 1.88758 14.1214 2.19973C14.3623 2.63982 14.2939 2.86089 13.9763 3.02567C13.6607 3.18942 13.4335 3.11982 13.1926 2.68076V2.67973Z" fill="#00ADAC"/>
</svg>
