<svg width="48" height="46" viewBox="0 0 48 46" fill="none" xmlns="http://www.w3.org/2000/svg">
<path d="M41.22 36.1227C42.4734 34.5414 43.3335 32.7154 43.7369 30.7795C44.1403 28.8435 44.0767 26.847 43.5507 24.9373C43.0247 23.0276 42.0498 21.2534 40.6979 19.7457C39.3461 18.238 37.6517 17.0353 35.74 16.2262C35.3236 13.9713 34.3665 11.8355 32.9416 9.98089C31.5167 8.1263 29.6614 6.6018 27.5167 5.52321C25.3719 4.44462 22.9942 3.84034 20.5641 3.75626C18.134 3.67218 15.7156 4.11053 13.4925 5.038C11.2694 5.96546 9.30012 7.35764 7.73437 9.10876C6.16862 10.8599 5.04756 12.9238 4.45637 15.1439C3.86518 17.3639 3.81941 19.6815 4.32254 21.9206C4.82567 24.1598 5.86446 26.2615 7.35998 28.0662L4.57998 30.6639C4.30247 30.9286 4.11447 31.2647 4.03973 31.6299C3.96498 31.995 4.00682 32.3728 4.15998 32.7156C4.31002 33.0594 4.56482 33.3536 4.89226 33.5613C5.2197 33.769 5.60513 33.8808 5.99998 33.8827H17.38C18.5133 36.1313 20.3001 38.0319 22.5335 39.3645C24.7669 40.697 27.3556 41.4069 30 41.4121H42C42.3948 41.4102 42.7803 41.2984 43.1077 41.0907C43.4351 40.8831 43.6899 40.5888 43.84 40.245C43.9931 39.9022 44.035 39.5244 43.9602 39.1593C43.8855 38.7941 43.6975 38.458 43.42 38.1933L41.22 36.1227ZM16 28.2356C16.0027 28.866 16.0562 29.4952 16.16 30.118H10.82L11.52 29.478C11.7074 29.303 11.8562 29.0948 11.9578 28.8654C12.0593 28.636 12.1116 28.39 12.1116 28.1415C12.1116 27.893 12.0593 27.647 11.9578 27.4176C11.8562 27.1882 11.7074 26.98 11.52 26.805C10.3991 25.7617 9.51048 24.5184 8.90609 23.148C8.3017 21.7777 7.99366 20.3076 7.99998 18.8239C7.99998 15.8285 9.26426 12.9558 11.5147 10.8377C13.7651 8.71965 16.8174 7.52974 20 7.52974C22.4834 7.5157 24.909 8.23447 26.9358 9.58501C28.9627 10.9356 30.4889 12.85 31.3 15.0592C30.86 15.0592 30.44 15.0592 30 15.0592C26.287 15.0592 22.726 16.4474 20.1005 18.9185C17.475 21.3895 16 24.741 16 28.2356ZM37.08 37.6474L37.18 37.7415H30C27.6867 37.7376 25.4463 36.979 23.6606 35.5949C21.8749 34.2107 20.6543 32.2867 20.2068 30.1506C19.7592 28.0145 20.1124 25.7984 21.2061 23.8799C22.2999 21.9614 24.0665 20.4591 26.2051 19.6289C28.3437 18.7988 30.7219 18.6922 32.9346 19.3273C35.1474 19.9623 37.0577 21.2998 38.3403 23.1118C39.6228 24.9238 40.1982 27.0982 39.9684 29.2647C39.7386 31.4312 38.7178 33.4557 37.08 34.9933C36.7032 35.3408 36.4875 35.8144 36.48 36.3109C36.4811 36.56 36.5347 36.8063 36.6377 37.0357C36.7407 37.2652 36.891 37.4731 37.08 37.6474V37.6474Z" fill="black"/>
</svg>
