<svg width="24" height="24" viewBox="0 0 24 24" fill="none" xmlns="http://www.w3.org/2000/svg">
<path d="M12.1052 20.6669C14.3975 20.6669 16.5958 19.7599 18.2167 18.1454C19.8376 16.531 20.7482 14.3413 20.7482 12.0581C20.7482 9.77491 19.8376 7.58522 18.2167 5.97076C16.5958 4.3563 14.3975 3.4493 12.1052 3.4493C9.81295 3.4493 7.61458 4.3563 5.99371 5.97076C4.37283 7.58522 3.46224 9.77491 3.46224 12.0581C3.46224 14.3413 4.37283 16.531 5.99371 18.1454C7.61458 19.7599 9.81295 20.6669 12.1052 20.6669ZM12.1052 22.3887C10.7432 22.3887 9.39452 22.1215 8.13619 21.6023C6.87785 21.0831 5.7345 20.3222 4.77141 19.3629C3.80832 18.4036 3.04435 17.2648 2.52313 16.0114C2.00191 14.7581 1.73364 13.4147 1.73364 12.0581C1.73364 10.7015 2.00191 9.35813 2.52313 8.10477C3.04435 6.85141 3.80832 5.71257 4.77141 4.75329C5.7345 3.79401 6.87785 3.03307 8.13619 2.51391C9.39452 1.99475 10.7432 1.72754 12.1052 1.72754C14.8559 1.72754 17.494 2.81593 19.439 4.75329C21.3841 6.69065 22.4768 9.31827 22.4768 12.0581C22.4768 14.7979 21.3841 17.4256 19.439 19.3629C17.494 21.3003 14.8559 22.3887 12.1052 22.3887Z" fill="#555555"/>
<path d="M6.17099 20.4672L7.66795 21.328L6.37151 23.5646C6.31517 23.6633 6.23979 23.7499 6.14971 23.8195C6.05962 23.8891 5.95661 23.9402 5.84661 23.9699C5.73661 23.9997 5.62179 24.0075 5.50876 23.9928C5.39572 23.9782 5.28671 23.9414 5.188 23.8847C5.08929 23.8279 5.00282 23.7522 4.93359 23.662C4.86435 23.5719 4.81371 23.4689 4.78457 23.3592C4.75544 23.2494 4.74839 23.135 4.76383 23.0225C4.77927 22.91 4.8169 22.8017 4.87454 22.7037L6.17099 20.4672ZM18.0395 20.4672L16.5426 21.328L17.839 23.5646C17.8953 23.6633 17.9707 23.7499 18.0608 23.8195C18.1509 23.8891 18.2539 23.9402 18.3639 23.9699C18.4739 23.9997 18.5887 24.0075 18.7018 23.9928C18.8148 23.9782 18.9238 23.9414 19.0225 23.8847C19.1212 23.8279 19.2077 23.7522 19.2769 23.662C19.3462 23.5719 19.3968 23.4689 19.4259 23.3592C19.4551 23.2494 19.4621 23.135 19.4467 23.0225C19.4312 22.91 19.3936 22.8017 19.336 22.7037L18.0395 20.4672ZM12.1053 12.0581H16.4267C16.656 12.0581 16.8758 12.1488 17.0379 12.3102C17.2 12.4717 17.291 12.6906 17.291 12.919C17.291 13.1473 17.2 13.3663 17.0379 13.5277C16.8758 13.6891 16.656 13.7798 16.4267 13.7798H11.241C11.0117 13.7798 10.7919 13.6891 10.6298 13.5277C10.4677 13.3663 10.3767 13.1473 10.3767 12.919V6.8928C10.3767 6.66448 10.4677 6.44551 10.6298 6.28407C10.7919 6.12262 11.0117 6.03192 11.241 6.03192C11.4702 6.03192 11.69 6.12262 11.8521 6.28407C12.0142 6.44551 12.1053 6.66448 12.1053 6.8928V12.0581ZM0.720728 6.68447C0.169142 5.85656 -0.0778977 4.86408 0.0215228 3.87542C0.120943 2.88675 0.560701 1.96279 1.26618 1.2603C1.97166 0.557808 2.89942 0.120056 3.89204 0.021314C4.88466 -0.077428 5.88101 0.168921 6.71204 0.718565L5.44671 1.97889C4.96286 1.74873 4.41927 1.67363 3.8908 1.76394C3.36233 1.85425 2.87496 2.10554 2.49581 2.48319C2.11666 2.86084 1.86438 3.34627 1.77371 3.87266C1.68304 4.39904 1.75844 4.94048 1.98952 5.42242L0.722456 6.68447H0.720728ZM23.2806 6.68447C23.8315 5.85669 24.078 4.86467 23.9784 3.87655C23.8788 2.88843 23.4393 1.965 22.7343 1.26278C22.0293 0.560558 21.1022 0.122753 20.1101 0.0235683C19.1181 -0.0756162 18.1221 0.169922 17.291 0.718565L18.5564 1.97889C19.0402 1.74873 19.5838 1.67363 20.1123 1.76394C20.6408 1.85425 21.1281 2.10554 21.5073 2.48319C21.8864 2.86084 22.1387 3.34627 22.2294 3.87266C22.32 4.39904 22.2447 4.94048 22.0136 5.42242L23.2806 6.68447Z" fill="#555555"/>
</svg>
