<svg width="47" height="47" viewBox="0 0 47 47" fill="none" xmlns="http://www.w3.org/2000/svg">
<path d="M42.7273 32.9V4.7H4.27273V32.9H42.7273ZM42.7273 0C43.8605 0 44.9473 0.495177 45.7485 1.3766C46.5498 2.25802 47 3.45348 47 4.7V32.9C47 34.1465 46.5498 35.342 45.7485 36.2234C44.9473 37.1048 43.8605 37.6 42.7273 37.6H27.7727V42.3H32.0455V47H14.9545V42.3H19.2273V37.6H4.27273C3.13953 37.6 2.05274 37.1048 1.25145 36.2234C0.450161 35.342 0 34.1465 0 32.9V4.7C0 2.0915 1.90136 0 4.27273 0H42.7273ZM8.54545 9.4H27.7727V21.15H8.54545V9.4ZM29.9091 9.4H38.4545V14.1H29.9091V9.4ZM38.4545 16.45V28.2H29.9091V16.45H38.4545ZM8.54545 23.5H17.0909V28.2H8.54545V23.5ZM19.2273 23.5H27.7727V28.2H19.2273V23.5Z" fill="#006161"/>
</svg>
