<svg width="23" height="24" viewBox="0 0 23 24" fill="none" xmlns="http://www.w3.org/2000/svg">
<path d="M22.2439 5.26829C22.2439 5.55504 22.1386 5.83181 21.948 6.04609C21.7575 6.26038 21.4949 6.39728 21.2101 6.43083L21.0732 6.43902H20.0839L18.6427 21.0966C18.5643 21.8919 18.1928 22.6296 17.6005 23.1663C17.0083 23.7029 16.2376 24.0001 15.4384 24H6.80546C6.00626 24.0001 5.2356 23.7029 4.64336 23.1663C4.05112 22.6296 3.67964 21.8919 3.60117 21.0966L2.16 6.43902H1.17073C0.860234 6.43902 0.562454 6.31568 0.342899 6.09612C0.123345 5.87657 0 5.57879 0 5.26829C0 4.9578 0.123345 4.66002 0.342899 4.44046C0.562454 4.22091 0.860234 4.09756 1.17073 4.09756H7.02439C7.02439 3.55946 7.13038 3.02663 7.3363 2.52949C7.54222 2.03235 7.84404 1.58064 8.22454 1.20015C8.60503 0.819654 9.05674 0.51783 9.55388 0.311908C10.051 0.105987 10.5839 0 11.122 0C11.6601 0 12.1929 0.105987 12.69 0.311908C13.1872 0.51783 13.6389 0.819654 14.0194 1.20015C14.3999 1.58064 14.7017 2.03235 14.9076 2.52949C15.1135 3.02663 15.2195 3.55946 15.2195 4.09756H21.0732C21.3837 4.09756 21.6814 4.22091 21.901 4.44046C22.1206 4.66002 22.2439 4.9578 22.2439 5.26829ZM13.7561 9.07317C13.5439 9.07318 13.3389 9.15002 13.179 9.28948C13.0191 9.42895 12.9151 9.6216 12.8862 9.8318L12.878 9.95122V18.1463L12.8862 18.2658C12.9152 18.4759 13.0192 18.6685 13.1791 18.8079C13.339 18.9473 13.544 19.0241 13.7561 19.0241C13.9682 19.0241 14.1732 18.9473 14.3331 18.8079C14.493 18.6685 14.597 18.4759 14.626 18.2658L14.6341 18.1463V9.95122L14.626 9.8318C14.5971 9.6216 14.4931 9.42895 14.3332 9.28948C14.1733 9.15002 13.9683 9.07318 13.7561 9.07317V9.07317ZM8.4878 9.07317C8.27562 9.07318 8.07062 9.15002 7.91072 9.28948C7.75081 9.42895 7.64681 9.6216 7.61795 9.8318L7.60976 9.95122V18.1463L7.61795 18.2658C7.64687 18.4759 7.75089 18.6685 7.91079 18.8079C8.0707 18.9473 8.27566 19.0241 8.4878 19.0241C8.69994 19.0241 8.90491 18.9473 9.06481 18.8079C9.22472 18.6685 9.32874 18.4759 9.35766 18.2658L9.36585 18.1463V9.95122L9.35766 9.8318C9.3288 9.6216 9.2248 9.42895 9.06489 9.28948C8.90499 9.15002 8.69999 9.07318 8.4878 9.07317V9.07317ZM11.122 2.34146C10.6562 2.34146 10.2095 2.52648 9.8802 2.85581C9.55087 3.18514 9.36585 3.63181 9.36585 4.09756H12.878C12.878 3.63181 12.693 3.18514 12.3637 2.85581C12.0344 2.52648 11.5877 2.34146 11.122 2.34146Z" fill="white"/>
</svg>
