<svg width="20" height="20" viewBox="0 0 20 20" fill="none" xmlns="http://www.w3.org/2000/svg">
<path d="M11.2584 0C6.5504 0 2.75404 3.27778 2.51676 7.4L0.119064 10.2111C-0.180649 10.5556 0.119064 11.1111 0.643561 11.1111H2.51676V14.4444C2.51676 15.6778 3.6282 16.6667 5.01437 16.6667H6.26317V20H15.0048V14.7889C17.9645 13.5444 20 10.8889 20 7.77778C20 3.48889 16.1037 0 11.2584 0ZM12.5072 12.2222H10.0096V11.1111H12.5072V12.2222ZM14.5053 7.22222C14.1727 7.72185 13.6991 8.13551 13.1316 8.42222V10H9.38518V8.42222C7.59939 7.5 6.97499 5.46667 8.0115 3.88889C9.048 2.31111 11.3458 1.73333 13.1316 2.64444C14.9174 3.55556 15.5418 5.61111 14.5053 7.22222Z" fill="#43E6E6"/>
</svg>
