<svg width="20" height="20" viewBox="0 0 20 20" fill="none" xmlns="http://www.w3.org/2000/svg">
<path d="M11.2584 6.2C12.2324 6.2 13.0567 6.87778 13.0567 7.77778C13.0567 8.67778 12.2324 9.37778 11.2584 9.37778C10.2843 9.37778 9.48508 8.64445 9.48508 7.77778C9.48508 6.91111 10.2469 6.2 11.2584 6.2ZM11.2584 2.3204e-06C16.1037 2.3204e-06 20 3.48889 20 7.77778C20 10.8889 17.9645 13.5444 15.0048 14.7889V20H6.26317V16.6667H5.01437C3.6282 16.6667 2.51676 15.6778 2.51676 14.4444V11.1111H0.643561C0.119064 11.1111 -0.180649 10.5556 0.119064 10.2111L2.51676 7.4C2.62679 5.40366 3.59602 3.52155 5.22351 2.14383C6.85101 0.766116 9.01196 -0.00154029 11.2584 2.3204e-06ZM15.0048 7.77778C15.0048 7.6 15.0048 7.5 14.9299 7.34445L16.0413 6.61111C16.1037 6.56667 16.1537 6.41111 16.1037 6.3L15.1047 4.78889C15.0423 4.68889 14.8674 4.63333 14.755 4.68889L13.5187 5.15556C13.2939 4.94445 12.9942 4.78889 12.707 4.68889L12.5072 3.54445C12.4697 3.38889 12.4073 3.33334 12.2324 3.33334H10.2469C10.122 3.33334 10.0096 3.38889 10.0096 3.54445L9.83475 4.68889C9.54752 4.78889 9.24781 4.94445 9.01054 5.15556L7.72427 4.68889C7.61188 4.63333 7.51197 4.68889 7.43705 4.78889L6.43801 6.3C6.37556 6.45556 6.37556 6.56667 6.50044 6.61111L7.54944 7.34445C7.54944 7.5 7.51197 7.65556 7.51197 7.77778C7.51197 7.92222 7.54944 8.07778 7.54944 8.23333L6.50044 8.95556C6.37556 9.01111 6.37556 9.11111 6.43801 9.22222L7.43705 10.7778C7.51197 10.8889 7.61188 10.8889 7.72427 10.8889L8.96059 10.4111C9.24781 10.6222 9.48508 10.7333 9.83475 10.8333L10.0096 12.0333C10.0096 12.1333 10.122 12.2222 10.2469 12.2222H12.2324C12.4073 12.2222 12.4697 12.1333 12.5072 12.0333L12.707 10.8333C12.9942 10.7333 13.2939 10.6222 13.5187 10.4222L14.755 10.8889C14.8674 10.8889 15.0423 10.8889 15.1047 10.7778L16.1037 9.22222C16.1537 9.11111 16.1037 9.01111 16.0413 8.95556L15.0048 8.23333V7.77778Z" fill="#006161"/>
</svg>
