<svg width="47" height="47" viewBox="0 0 47 47" fill="none" xmlns="http://www.w3.org/2000/svg">
<path d="M44.5566 17.8253V11.0285C44.5534 8.35602 42.3876 6.19016 39.7151 6.18706H38.4403V5.42265C38.4293 3.25369 36.6679 1.50195 34.4993 1.50195C32.3307 1.50195 30.5696 3.25369 30.5579 5.42265V6.18706H16.319V5.42265C16.308 3.25369 14.5466 1.50195 12.3779 1.50195C10.2093 1.50195 8.44827 3.25369 8.43654 5.42265V6.18706H7.16139C4.48927 6.19016 2.32342 8.35602 2.32031 11.0285V40.7231C2.32342 43.3956 4.48927 45.5614 7.16139 45.5646H39.7151C42.3876 45.5614 44.5534 43.3956 44.5566 40.7231V18.5241C44.6332 18.2974 44.6332 18.052 44.5566 17.8253ZM34.4993 3.68541C35.458 3.68679 36.2348 4.46327 36.2358 5.42265V7.74381C36.2286 8.69733 35.4528 9.46656 34.4986 9.46656C33.5447 9.46656 32.7693 8.69733 32.7617 7.74381V5.42265C32.7627 4.46327 33.5399 3.68645 34.4993 3.68541ZM10.6404 5.42265C10.6479 4.46845 11.4234 3.69922 12.3772 3.69922C13.3315 3.69922 14.1066 4.46845 14.1145 5.42265V7.74381C14.1066 8.69733 13.3315 9.46656 12.3772 9.46656C11.4234 9.46656 10.6479 8.69733 10.6404 7.74381V5.42265ZM7.16139 8.39122H8.49038C8.80718 10.2914 10.4509 11.6842 12.3772 11.6842C14.3039 11.6842 15.9477 10.2914 16.2645 8.39122H30.612C30.9289 10.2914 32.5729 11.6842 34.4993 11.6842C36.4256 11.6842 38.0697 10.2914 38.3861 8.39122H39.7151C41.1711 8.39295 42.3507 9.5725 42.3524 11.0285V17.0723H4.52447V11.0288C4.52585 9.57285 5.7061 8.39295 7.16139 8.39122ZM39.7151 43.3604H7.16139C5.7061 43.3587 4.5262 42.1791 4.52447 40.7231V19.2764H42.3524V40.7231C42.3507 42.1791 41.1711 43.3587 39.7151 43.3604Z" fill="#7E808B"/>
<path d="M30.1527 29.1026L26.1903 28.538L24.4227 25.0266C24.2356 24.6546 23.855 24.4199 23.4381 24.4199C23.0219 24.4199 22.6413 24.6546 22.4542 25.0266L20.6859 28.538L16.7242 29.1026C16.3062 29.162 15.9591 29.455 15.83 29.8567C15.7013 30.2584 15.8128 30.6987 16.1182 30.9903L18.9718 33.7177L18.2995 37.5624C18.2274 37.9748 18.3948 38.3924 18.7323 38.6402C19.0695 38.8883 19.5181 38.9235 19.8901 38.732L23.4388 36.9033L26.9874 38.732C27.3591 38.9235 27.8077 38.888 28.1446 38.6398C28.4814 38.3924 28.6494 37.9748 28.5777 37.5628L27.9051 33.718L30.759 30.9907C31.0641 30.6994 31.1759 30.2587 31.0469 29.8573C30.9178 29.4556 30.5706 29.1623 30.1527 29.103V29.1026ZM25.9563 32.5302C25.6902 32.7842 25.5687 33.1545 25.6322 33.5168L26.0239 35.7555L23.9433 34.6833C23.6269 34.52 23.2507 34.52 22.9336 34.6833L20.8529 35.7555L21.2443 33.5168C21.3081 33.1545 21.1863 32.7842 20.9202 32.5302L19.2817 30.9648L21.567 30.6393C21.9241 30.5886 22.2337 30.366 22.3959 30.044L23.4381 27.9734L24.481 30.044C24.6432 30.366 24.9527 30.5886 25.3096 30.6393L27.5952 30.9648L25.9563 32.5302Z" fill="#7E808B"/>
</svg>
