<svg width="24" height="24" viewBox="0 0 24 24" fill="none" xmlns="http://www.w3.org/2000/svg">
<path d="M1.89873 22.1023C2.5012 22.7057 3.21694 23.184 4.00483 23.5099C4.79273 23.8357 5.63725 24.0027 6.48987 24.0011C7.34268 24.0026 8.18738 23.8357 8.97548 23.5098C9.76358 23.184 10.4796 22.7056 11.0823 22.1023L14.7552 18.4281L12.9188 16.5917L9.24585 20.2659C8.51396 20.9945 7.52326 21.4036 6.49052 21.4036C5.45778 21.4036 4.46708 20.9945 3.73519 20.2659C3.00594 19.5343 2.59644 18.5435 2.59644 17.5105C2.59644 16.4776 3.00594 15.4868 3.73519 14.7552L7.4094 11.0823L5.57294 9.24585L1.89873 12.9188C0.682837 14.1376 0 15.7889 0 17.5105C0 19.2322 0.682837 20.8835 1.89873 22.1023V22.1023ZM22.1023 11.0823C23.3176 9.86314 24 8.21193 24 6.49052C24 4.76911 23.3176 3.11791 22.1023 1.89873C20.8835 0.682837 19.2322 0 17.5105 0C15.7889 0 14.1376 0.682837 12.9188 1.89873L9.24585 5.57294L11.0823 7.4094L14.7552 3.73519C15.4871 3.00657 16.4778 2.59751 17.5105 2.59751C18.5433 2.59751 19.534 3.00657 20.2659 3.73519C20.9951 4.46675 21.4046 5.45757 21.4046 6.49052C21.4046 7.52347 20.9951 8.51429 20.2659 9.24585L16.5917 12.9188L18.4281 14.7552L22.1023 11.0823Z" fill="#555555"/>
<path d="M7.40807 18.4291L5.57031 16.5926L16.5929 5.57129L18.4294 7.40904L7.40807 18.4291Z" fill="#555555"/>
</svg>
