<svg width="20" height="20" viewBox="0 0 20 20" fill="none" xmlns="http://www.w3.org/2000/svg">
<path d="M5.02 11.5789C2.81 11.5789 1.02 13.4632 1.02 15.7895C1.02 18.1158 2.81 20 5.02 20C7.23 20 9.02 18.1158 9.02 15.7895C9.02 13.4632 7.23 11.5789 5.02 11.5789ZM11 11.5789V20H19V11.5789H11ZM5 0L0 9.47368H10L5 0ZM17.25 0.526316C16.19 0.526316 15.44 1.11579 15 1.75789C14.56 1.11579 13.81 0.526316 12.75 0.526316C11.19 0.526316 10 1.87368 10 3.42105C10 5.52632 12.42 7.02105 15 9.47368C17.58 7.02105 20 5.52632 20 3.42105C20 1.87368 18.81 0.526316 17.25 0.526316Z" fill="#C4C4C4"/>
</svg>
