<svg width="48" height="34" viewBox="0 0 48 34" fill="none" xmlns="http://www.w3.org/2000/svg">
<path d="M45.6 0H2.4C1.07475 0 0 1.07475 0 2.4V31.2C0 32.5252 1.07475 33.6 2.4 33.6H45.6C46.9253 33.6 48 32.5252 48 31.2V2.4C48 1.07475 46.9253 0 45.6 0ZM13.2 22.191V23.4C13.2 23.7315 12.9315 24 12.6 24H11.4C11.0685 24 10.8 23.7315 10.8 23.4V22.1782C9.95325 22.1347 9.12975 21.8392 8.44725 21.327C8.15475 21.1072 8.13975 20.6692 8.4045 20.4165L9.28575 19.5757C9.4935 19.3777 9.8025 19.3687 10.0455 19.521C10.3358 19.7025 10.665 19.8 11.007 19.8H13.1153C13.6028 19.8 14.0003 19.356 14.0003 18.8107C14.0003 18.3645 13.7295 17.9715 13.3425 17.856L9.9675 16.8435C8.57325 16.425 7.599 15.087 7.599 13.5892C7.599 11.7502 9.02775 10.2562 10.7993 10.209V9C10.7993 8.6685 11.0678 8.4 11.3993 8.4H12.5993C12.9308 8.4 13.1993 8.6685 13.1993 9V10.2217C14.046 10.2652 14.8695 10.56 15.552 11.073C15.8445 11.2927 15.8595 11.7307 15.5948 11.9835L14.7135 12.8242C14.5058 13.0222 14.1968 13.0312 13.9538 12.879C13.6635 12.6967 13.3343 12.6 12.9923 12.6H10.884C10.3965 12.6 9.999 13.044 9.999 13.5892C9.999 14.0355 10.2698 14.4285 10.6568 14.544L14.0318 15.5565C15.426 15.975 16.4003 17.313 16.4003 18.8107C16.4003 20.6505 14.9715 22.1437 13.2 22.191V22.191ZM31.2 21C31.2 21.3315 30.9315 21.6 30.6 21.6H22.2C21.8685 21.6 21.6 21.3315 21.6 21V19.8C21.6 19.4685 21.8685 19.2 22.2 19.2H30.6C30.9315 19.2 31.2 19.4685 31.2 19.8V21ZM43.2 21C43.2 21.3315 42.9315 21.6 42.6 21.6H36.6C36.2685 21.6 36 21.3315 36 21V19.8C36 19.4685 36.2685 19.2 36.6 19.2H42.6C42.9315 19.2 43.2 19.4685 43.2 19.8V21ZM43.2 13.8C43.2 14.1315 42.9315 14.4 42.6 14.4H22.2C21.8685 14.4 21.6 14.1315 21.6 13.8V12.6C21.6 12.2685 21.8685 12 22.2 12H42.6C42.9315 12 43.2 12.2685 43.2 12.6V13.8Z" fill="#555555"/>
</svg>
