<svg width="47" height="47" viewBox="0 0 47 47" fill="none" xmlns="http://www.w3.org/2000/svg">
<path d="M20.5625 41.125C20.5625 41.125 17.625 41.125 17.625 38.1875C17.625 35.25 20.5625 26.4375 32.3125 26.4375C44.0625 26.4375 47 35.25 47 38.1875C47 41.125 44.0625 41.125 44.0625 41.125H20.5625ZM32.3125 23.5C34.6497 23.5 36.8912 22.5715 38.5439 20.9189C40.1965 19.2662 41.125 17.0247 41.125 14.6875C41.125 12.3503 40.1965 10.1088 38.5439 8.45612C36.8912 6.80346 34.6497 5.875 32.3125 5.875C29.9753 5.875 27.7338 6.80346 26.0811 8.45612C24.4285 10.1088 23.5 12.3503 23.5 14.6875C23.5 17.0247 24.4285 19.2662 26.0811 20.9189C27.7338 22.5715 29.9753 23.5 32.3125 23.5V23.5Z" fill="#555555"/>
<path fill-rule="evenodd" clip-rule="evenodd" d="M15.322 41.125C14.8865 40.208 14.6694 39.2025 14.6875 38.1875C14.6875 34.2072 16.685 30.1094 20.3745 27.26C18.533 26.6926 16.6143 26.4151 14.6875 26.4375C2.9375 26.4375 0 35.25 0 38.1875C0 41.125 2.9375 41.125 2.9375 41.125H15.322Z" fill="#555555"/>
<path d="M13.2188 23.5C15.1664 23.5 17.0343 22.7263 18.4116 21.3491C19.7888 19.9718 20.5625 18.1039 20.5625 16.1562C20.5625 14.2086 19.7888 12.3407 18.4116 10.9634C17.0343 9.58621 15.1664 8.8125 13.2188 8.8125C11.2711 8.8125 9.40315 9.58621 8.02593 10.9634C6.64871 12.3407 5.875 14.2086 5.875 16.1562C5.875 18.1039 6.64871 19.9718 8.02593 21.3491C9.40315 22.7263 11.2711 23.5 13.2188 23.5V23.5Z" fill="#555555"/>
</svg>
