<svg width="24" height="24" viewBox="0 0 24 24" fill="none" xmlns="http://www.w3.org/2000/svg">
<path d="M19.2 10.8H15.384C14.88 9.408 13.56 8.4 12 8.4C10.44 8.4 9.12 9.408 8.616 10.8H4.8C4.404 10.8 2.4 10.68 2.4 8.4V7.2C2.4 5.004 4.248 4.8 4.8 4.8H17.016C17.52 6.192 18.84 7.2 20.4 7.2C21.3548 7.2 22.2705 6.82072 22.9456 6.14558C23.6207 5.47045 24 4.55478 24 3.6C24 2.64522 23.6207 1.72955 22.9456 1.05442C22.2705 0.379285 21.3548 0 20.4 0C18.84 0 17.52 1.008 17.016 2.4H4.8C2.868 2.4 0 3.672 0 7.2V8.4C0 11.928 2.868 13.2 4.8 13.2H8.616C9.12 14.592 10.44 15.6 12 15.6C13.56 15.6 14.88 14.592 15.384 13.2H19.2C19.596 13.2 21.6 13.32 21.6 15.6V16.8C21.6 18.996 19.752 19.2 19.2 19.2H6.984C6.48 17.808 5.16 16.8 3.6 16.8C2.64522 16.8 1.72955 17.1793 1.05442 17.8544C0.379285 18.5295 0 19.4452 0 20.4C0 21.3548 0.379285 22.2705 1.05442 22.9456C1.72955 23.6207 2.64522 24 3.6 24C5.16 24 6.48 22.992 6.984 21.6H19.2C21.132 21.6 24 20.316 24 16.8V15.6C24 12.084 21.132 10.8 19.2 10.8ZM20.4 2.4C20.7183 2.4 21.0235 2.52643 21.2485 2.75147C21.4736 2.97652 21.6 3.28174 21.6 3.6C21.6 3.91826 21.4736 4.22348 21.2485 4.44853C21.0235 4.67357 20.7183 4.8 20.4 4.8C20.0817 4.8 19.7765 4.67357 19.5515 4.44853C19.3264 4.22348 19.2 3.91826 19.2 3.6C19.2 3.28174 19.3264 2.97652 19.5515 2.75147C19.7765 2.52643 20.0817 2.4 20.4 2.4ZM3.6 21.6C3.28174 21.6 2.97652 21.4736 2.75147 21.2485C2.52643 21.0235 2.4 20.7183 2.4 20.4C2.4 20.0817 2.52643 19.7765 2.75147 19.5515C2.97652 19.3264 3.28174 19.2 3.6 19.2C3.91826 19.2 4.22348 19.3264 4.44853 19.5515C4.67357 19.7765 4.8 20.0817 4.8 20.4C4.8 20.7183 4.67357 21.0235 4.44853 21.2485C4.22348 21.4736 3.91826 21.6 3.6 21.6Z" fill="#555555"/>
</svg>
