<svg width="48" height="48" viewBox="0 0 48 48" fill="none" xmlns="http://www.w3.org/2000/svg">
<path d="M43.5 10.5H36V7.875C36 7.66875 35.8313 7.5 35.625 7.5H33C32.7937 7.5 32.625 7.66875 32.625 7.875V10.5H25.6875V7.875C25.6875 7.66875 25.5188 7.5 25.3125 7.5H22.6875C22.4812 7.5 22.3125 7.66875 22.3125 7.875V10.5H15.375V7.875C15.375 7.66875 15.2063 7.5 15 7.5H12.375C12.1687 7.5 12 7.66875 12 7.875V10.5H4.5C3.67031 10.5 3 11.1703 3 12V39C3 39.8297 3.67031 40.5 4.5 40.5H43.5C44.3297 40.5 45 39.8297 45 39V12C45 11.1703 44.3297 10.5 43.5 10.5ZM19.875 32.25C19.875 32.4563 19.7063 32.625 19.5 32.625H10.875C10.6687 32.625 10.5 32.4563 10.5 32.25V30C10.5 29.7937 10.6687 29.625 10.875 29.625H19.5C19.7063 29.625 19.875 29.7937 19.875 30V32.25ZM19.875 25.875C19.875 26.0813 19.7063 26.25 19.5 26.25H10.875C10.6687 26.25 10.5 26.0813 10.5 25.875V23.625C10.5 23.4187 10.6687 23.25 10.875 23.25H19.5C19.7063 23.25 19.875 23.4187 19.875 23.625V25.875ZM37.4297 21.5953L29.6953 32.3156C29.6263 32.4115 29.5354 32.4895 29.4303 32.5433C29.3252 32.5972 29.2087 32.6252 29.0906 32.6252C28.9725 32.6252 28.8561 32.5972 28.751 32.5433C28.6458 32.4895 28.555 32.4115 28.4859 32.3156L23.1328 24.9C22.9547 24.6516 23.1328 24.3047 23.4375 24.3047H26.0109C26.25 24.3047 26.475 24.4219 26.6156 24.6141L29.0906 28.0406L33.9516 21.3047C34.0922 21.1078 34.3172 20.9953 34.5563 20.9953H37.125C37.4297 21 37.6078 21.3469 37.4297 21.5953V21.5953Z" fill="black"/>
</svg>
