<svg width="48" height="48" viewBox="0 0 48 48" fill="none" xmlns="http://www.w3.org/2000/svg">
<path d="M43.5781 2.95956L44.7581 4.13956C46.3841 5.76756 46.1381 8.65356 44.2041 10.5856L19.8701 34.9196L11.9861 37.8036C10.9961 38.1676 10.0321 37.6956 9.83611 36.7536C9.76987 36.4119 9.80105 36.0584 9.92611 35.7336L12.8661 27.7816L37.1321 3.51356C39.0661 1.58156 41.9521 1.33356 43.5781 2.96156V2.95956ZM18.8081 5.37956C19.0707 5.37956 19.3308 5.43129 19.5735 5.5318C19.8161 5.63231 20.0366 5.77963 20.2223 5.96535C20.408 6.15107 20.5554 6.37154 20.6559 6.6142C20.7564 6.85685 20.8081 7.11692 20.8081 7.37956C20.8081 7.64221 20.7564 7.90228 20.6559 8.14493C20.5554 8.38758 20.408 8.60806 20.2223 8.79378C20.0366 8.97949 19.8161 9.12681 19.5735 9.22732C19.3308 9.32783 19.0707 9.37956 18.8081 9.37956H10.8081C9.74724 9.37956 8.72982 9.80099 7.97968 10.5511C7.22953 11.3013 6.80811 12.3187 6.80811 13.3796V37.3796C6.80811 38.4404 7.22953 39.4578 7.97968 40.208C8.72982 40.9581 9.74724 41.3796 10.8081 41.3796H34.8081C35.869 41.3796 36.8864 40.9581 37.6365 40.208C38.3867 39.4578 38.8081 38.4404 38.8081 37.3796V29.3796C38.8081 28.8491 39.0188 28.3404 39.3939 27.9653C39.769 27.5903 40.2777 27.3796 40.8081 27.3796C41.3385 27.3796 41.8472 27.5903 42.2223 27.9653C42.5974 28.3404 42.8081 28.8491 42.8081 29.3796V37.3796C42.8081 39.5013 41.9653 41.5361 40.465 43.0364C38.9647 44.5367 36.9298 45.3796 34.8081 45.3796H10.8081C8.68637 45.3796 6.65154 44.5367 5.15125 43.0364C3.65096 41.5361 2.80811 39.5013 2.80811 37.3796V13.3796C2.80811 11.2578 3.65096 9.223 5.15125 7.72271C6.65154 6.22242 8.68637 5.37956 10.8081 5.37956H18.8081V5.37956Z" fill="white"/>
</svg>
