<svg width="34" height="47" viewBox="0 0 34 47" fill="none" xmlns="http://www.w3.org/2000/svg">
<path fill-rule="evenodd" clip-rule="evenodd" d="M33.5155 5.6592H33.5258H33.5269V44.1156H33.5116C33.5116 44.126 33.5144 44.1353 33.5144 44.1456C33.5141 44.9026 33.2132 45.6286 32.6778 46.1638C32.1425 46.6991 31.4165 46.9999 30.6594 47C30.6293 47 30.6003 46.9959 30.5712 46.9919C30.5481 46.9886 30.525 46.9854 30.5014 46.9842H2.98191V46.9728C2.96232 46.9735 2.94331 46.9762 2.92434 46.9789C2.90216 46.9821 2.88003 46.9853 2.85712 46.9853C2.48209 46.9855 2.11069 46.9118 1.76412 46.7685C1.41756 46.6252 1.10263 46.415 0.837316 46.1499C0.572 45.8848 0.361498 45.5701 0.21783 45.2237C0.0741624 44.8773 0.000143081 44.5059 0 44.1309L0.00163496 44.1162H0V5.65866H0.00762913C0.00736706 5.64634 0.00559258 5.63453 0.003821 5.62273C0.00190882 5.61 0 5.5973 0 5.584C0.000721152 4.82656 0.301895 4.10034 0.837435 3.5647C1.37298 3.02906 2.09914 2.72775 2.85658 2.72688L2.86747 2.72797H10.859V0.886073L10.8574 0.869724C10.8574 0.389632 11.2465 0.0010898 11.726 0.0010898C11.7301 0.0010898 11.7339 0.00163477 11.7377 0.00217973C11.7416 0.0027247 11.7454 0.00326966 11.7495 0.00326966V0H21.8031V0.00435947C22.2821 0.00544935 22.6711 0.393447 22.6711 0.873539V2.72852H30.6044C30.6148 2.72826 30.6247 2.72675 30.6346 2.72525C30.6454 2.72361 30.6562 2.72198 30.6676 2.72198C31.4253 2.72255 32.1517 3.02394 32.6873 3.5599C33.2228 4.09585 33.5236 4.82252 33.5236 5.58019C33.5236 5.59437 33.5216 5.60796 33.5195 5.6215C33.5176 5.63397 33.5157 5.6464 33.5155 5.6592ZM5.41616 41.5844H28.1091V8.13814H25.3888V9.8438C25.3888 9.84545 25.3889 9.84708 25.389 9.84869C25.3896 9.85507 25.3909 9.86125 25.3909 9.86778C25.3907 10.1297 25.2865 10.3808 25.1013 10.5661C24.916 10.7513 24.6649 10.8555 24.403 10.8558H9.12993V10.8514L9.1223 10.8519C8.57518 10.8519 8.13378 10.4073 8.13378 9.86342C8.13378 9.85283 8.1352 9.84295 8.13662 9.83308C8.13769 9.82567 8.13876 9.81826 8.13923 9.81056V8.13814H5.41616V41.5844ZM10.1976 18.0097C10.5578 18.0097 10.8505 18.3024 10.8505 18.6609V18.662H10.851V20.0772C10.851 20.4347 10.5584 20.7274 10.1971 20.7274C10.1884 20.7274 10.1804 20.7249 10.1722 20.7224C10.1651 20.7202 10.1579 20.7181 10.1502 20.7175V20.7274H8.78624C8.42549 20.7274 8.13286 20.4347 8.13286 20.0772V18.662C8.13329 18.489 8.2023 18.3231 8.32478 18.2009C8.44725 18.0786 8.61319 18.0099 8.78624 18.0097H10.1497V18.0195C10.1569 18.0188 10.1639 18.0168 10.1708 18.0148C10.1795 18.0123 10.1882 18.0097 10.1976 18.0097ZM24.7372 18.0097C25.0974 18.0097 25.39 18.3024 25.39 18.6609V18.662H25.3906V20.0772C25.3906 20.4347 25.0979 20.7274 24.7367 20.7274H14.222C13.8613 20.7274 13.5686 20.4347 13.5686 20.0772V18.662C13.5691 18.489 13.6381 18.3231 13.7606 18.2009C13.883 18.0786 14.049 18.0099 14.222 18.0097H24.7372ZM10.1976 23.4455C10.5578 23.4455 10.8505 23.7381 10.8505 24.0967V24.0978H10.851V25.513C10.851 25.8705 10.5584 26.1631 10.1971 26.1631C10.1884 26.1631 10.1804 26.1607 10.1723 26.1582C10.1651 26.156 10.1579 26.1538 10.1502 26.1533V26.1631H8.78624C8.42549 26.1631 8.13286 25.8705 8.13286 25.513V24.0978C8.13329 23.9248 8.2023 23.7589 8.32478 23.6367C8.44725 23.5144 8.61319 23.4457 8.78624 23.4455H10.1497V23.4553C10.1569 23.4546 10.1639 23.4526 10.1708 23.4506C10.1795 23.448 10.1882 23.4455 10.1976 23.4455ZM24.7372 23.4455C25.0974 23.4455 25.39 23.7381 25.39 24.0967V24.0978H25.3906V25.513C25.3906 25.8705 25.0979 26.1631 24.7367 26.1631H14.222C13.8613 26.1631 13.5686 25.8705 13.5686 25.513V24.0978C13.5691 23.9248 13.6381 23.7589 13.7606 23.6367C13.883 23.5144 14.049 23.4457 14.222 23.4455H24.7372ZM10.1976 28.8813C10.5578 28.8813 10.8505 29.1739 10.8505 29.5325V29.5336H10.851V30.9488C10.851 31.3063 10.5584 31.5989 10.1971 31.5989C10.1884 31.5989 10.1804 31.5964 10.1723 31.594C10.1651 31.5918 10.1579 31.5896 10.1502 31.5891V31.5989H8.78624C8.42549 31.5989 8.13286 31.3063 8.13286 30.9488V29.5336C8.13329 29.3605 8.2023 29.1947 8.32478 29.0724C8.44725 28.9502 8.61319 28.8814 8.78624 28.8813H10.1497V28.8911C10.1569 28.8904 10.1639 28.8884 10.1708 28.8864C10.1795 28.8838 10.1882 28.8813 10.1976 28.8813ZM24.7372 28.8813C25.0974 28.8813 25.39 29.1739 25.39 29.5325V29.5336H25.3906V30.9488C25.3906 31.3063 25.0979 31.5989 24.7367 31.5989H14.222C13.8613 31.5989 13.5686 31.3063 13.5686 30.9488V29.5336C13.5691 29.3605 13.6381 29.1947 13.7606 29.0724C13.883 28.9502 14.049 28.8814 14.222 28.8813H24.7372Z" fill="#555555"/>
</svg>
