<svg width="42" height="42" viewBox="0 0 42 42" fill="none" xmlns="http://www.w3.org/2000/svg">
<path d="M19.1671 29.3269C19.3997 29.5592 19.715 29.6899 20.0441 29.6899C20.3729 29.6899 20.6882 29.5595 20.9208 29.3269L25.3483 24.8994C25.8328 24.4149 25.8328 23.6299 25.3483 23.1454C24.8641 22.6612 24.0787 22.6612 23.5945 23.1454L20.0441 26.6958L18.4253 25.0769C17.9408 24.5928 17.1557 24.5928 16.6712 25.0769C16.1871 25.5611 16.1871 26.3465 16.6712 26.831L19.1671 29.3269Z" fill="#868893"/>
<path d="M21.0101 36.0813C26.4386 36.0813 30.8548 31.6648 30.8548 26.2363C30.8548 20.8078 26.4386 16.3916 21.0101 16.3916C15.5813 16.3916 11.165 20.8078 11.165 26.2363C11.165 31.6648 15.5816 36.0813 21.0101 36.0813ZM21.0101 18.8718C25.0709 18.8718 28.3746 22.1754 28.3746 26.2363C28.3746 30.2972 25.0709 33.6012 21.0101 33.6012C16.9492 33.6012 13.6452 30.2972 13.6452 26.2363C13.6452 22.1754 16.9492 18.8718 21.0101 18.8718Z" fill="#868893"/>
<path d="M37.5165 2.6407H35.2545V1.24008C35.2545 0.555313 34.6992 0 34.0145 0C33.3297 0 32.7744 0.555313 32.7744 1.24008V2.6407H30.3375V1.24008C30.3375 0.555313 29.7822 0 29.0971 0C28.4123 0 27.857 0.555313 27.857 1.24008V2.6407H14.1629V1.24008C14.1629 0.555313 13.6076 0 12.9225 0C12.2377 0 11.6824 0.555313 11.6824 1.24008V2.6407H9.2455V1.24008C9.2455 0.555313 8.69019 0 8.0051 0C7.32033 0 6.76501 0.555313 6.76501 1.24008V2.6407H4.50275C2.29143 2.6407 0.492188 4.43994 0.492188 6.65158V37.9894C0.492188 40.2008 2.29143 42 4.50275 42H37.5165C39.7281 42 41.527 40.2008 41.527 37.9894V6.65158C41.527 4.43994 39.7278 2.6407 37.5165 2.6407ZM39.0466 37.9894C39.0466 38.8331 38.3602 39.5198 37.5165 39.5198H4.50275C3.65904 39.5198 2.97235 38.8331 2.97235 37.9894V12.9526H39.0466V37.9894ZM2.97235 6.65158C2.97235 5.80756 3.65904 5.12119 4.50275 5.12119H6.76501V6.5218C6.76501 7.20657 7.32033 7.76189 8.00542 7.76189C8.69019 7.76189 9.2455 7.20657 9.2455 6.5218V5.12119H11.6824V6.5218C11.6824 7.20657 12.2377 7.76189 12.9228 7.76189C13.6076 7.76189 14.1629 7.20657 14.1629 6.5218V5.12119H27.857V6.5218C27.857 7.20657 28.4123 7.76189 29.0974 7.76189C29.7822 7.76189 30.3375 7.20657 30.3375 6.5218V5.12119H32.7744V6.5218C32.7744 7.20657 33.3297 7.76189 34.0145 7.76189C34.6995 7.76189 35.2549 7.20657 35.2549 6.5218V5.12119H37.5165C38.3602 5.12119 39.0469 5.80756 39.0469 6.65158V10.4721H2.97235V6.65158Z" fill="#868893"/>
</svg>
